<svg width="1128" height="376" viewBox="0 0 1128 376" fill="none" xmlns="http://www.w3.org/2000/svg">
<mask id="mask0_99_6" style="mask-type:alpha" maskUnits="userSpaceOnUse" x="0" y="0" width="1128" height="376">
<path d="M0 0H1128V358C1128 367.941 1119.94 376 1110 376H18C8.05891 376 0 367.941 0 358V0Z" fill="#D9D9D9"/>
</mask>
<g mask="url(#mask0_99_6)">
<g clip-path="url(#clip0_99_6)">
<path opacity="0.15" d="M-0.00012207 310.749L-0.00012207 381.374H70.6249V310.749H-0.00012207Z" stroke="#B191DD" stroke-opacity="0.15"/>
<path d="M6.96942 381.374C6.96942 377.525 3.84903 374.405 -0.000154495 374.405C-3.84934 374.405 -6.96973 377.525 -6.96973 381.374C-6.96973 385.223 -3.84934 388.344 -0.000154495 388.344C3.84903 388.344 6.96942 385.223 6.96942 381.374Z" fill="#B191DD" fill-opacity="0.15"/>
<path opacity="0.15" d="M-0.00012207 240.124L-0.00012207 310.749H70.6249V240.124H-0.00012207Z" stroke="#B191DD" stroke-opacity="0.15"/>
<path d="M6.96942 310.749C6.96942 306.9 3.84903 303.78 -0.000154495 303.78C-3.84934 303.78 -6.96973 306.9 -6.96973 310.749C-6.96973 314.598 -3.84934 317.719 -0.000154495 317.719C3.84903 317.719 6.96942 314.598 6.96942 310.749Z" fill="#B191DD" fill-opacity="0.15"/>
<path opacity="0.15" d="M-0.00012207 169.499L-0.00012207 240.124H70.6249V169.499H-0.00012207Z" stroke="#B191DD" stroke-opacity="0.15"/>
<path d="M6.96942 240.124C6.96942 236.275 3.84903 233.155 -0.000154495 233.155C-3.84934 233.155 -6.96973 236.275 -6.96973 240.124C-6.96973 243.973 -3.84934 247.094 -0.000154495 247.094C3.84903 247.094 6.96942 243.973 6.96942 240.124Z" fill="#B191DD" fill-opacity="0.15"/>
<path opacity="0.15" d="M-0.00012207 98.8743L-0.00012207 169.499H70.6249V98.8743H-0.00012207Z" stroke="#B191DD" stroke-opacity="0.15"/>
<path d="M6.96942 169.499C6.96942 165.65 3.84903 162.53 -0.000154495 162.53C-3.84934 162.53 -6.96973 165.65 -6.96973 169.499C-6.96973 173.348 -3.84934 176.469 -0.000154495 176.469C3.84903 176.469 6.96942 173.348 6.96942 169.499Z" fill="#B191DD" fill-opacity="0.15"/>
<path opacity="0.15" d="M-0.00012207 28.2493L-0.00012207 98.8743H70.6249V28.2493H-0.00012207Z" stroke="#B191DD" stroke-opacity="0.15"/>
<path d="M6.96942 98.8742C6.96942 95.025 3.84903 91.9046 -0.000154495 91.9046C-3.84934 91.9046 -6.96973 95.025 -6.96973 98.8742C-6.96973 102.723 -3.84934 105.844 -0.000154495 105.844C3.84903 105.844 6.96942 102.723 6.96942 98.8742Z" fill="#B191DD" fill-opacity="0.15"/>
<path opacity="0.15" d="M-0.00012207 -42.3757L-0.00012207 28.2493L70.6249 28.2493V-42.3757H-0.00012207Z" stroke="#B191DD" stroke-opacity="0.15"/>
<path d="M6.96942 28.2492C6.96942 24.4 3.84903 21.2796 -0.000154495 21.2796C-3.84934 21.2796 -6.96973 24.4 -6.96973 28.2492C-6.96973 32.0984 -3.84934 35.2188 -0.000154495 35.2188C3.84903 35.2188 6.96942 32.0984 6.96942 28.2492Z" fill="#B191DD" fill-opacity="0.15"/>
<path opacity="0.15" d="M70.6249 310.749V381.374H141.25V310.749H70.6249Z" stroke="#B191DD" stroke-opacity="0.15"/>
<path d="M77.5944 381.374C77.5944 377.525 74.474 374.405 70.6248 374.405C66.7757 374.405 63.6553 377.525 63.6553 381.374C63.6553 385.223 66.7757 388.344 70.6248 388.344C74.474 388.344 77.5944 385.223 77.5944 381.374Z" fill="#B191DD" fill-opacity="0.15"/>
<path opacity="0.15" d="M70.6249 240.124V310.749H141.25V240.124H70.6249Z" stroke="#B191DD" stroke-opacity="0.15"/>
<path d="M77.5944 310.749C77.5944 306.9 74.474 303.78 70.6248 303.78C66.7757 303.78 63.6553 306.9 63.6553 310.749C63.6553 314.598 66.7757 317.719 70.6248 317.719C74.474 317.719 77.5944 314.598 77.5944 310.749Z" fill="#B191DD" fill-opacity="0.15"/>
<path opacity="0.15" d="M70.6249 169.499V240.124H141.25V169.499H70.6249Z" stroke="#B191DD" stroke-opacity="0.15"/>
<path d="M77.5944 240.124C77.5944 236.275 74.474 233.155 70.6248 233.155C66.7757 233.155 63.6553 236.275 63.6553 240.124C63.6553 243.973 66.7757 247.094 70.6248 247.094C74.474 247.094 77.5944 243.973 77.5944 240.124Z" fill="#B191DD" fill-opacity="0.15"/>
<path opacity="0.15" d="M70.6249 98.8743V169.499H141.25V98.8743H70.6249Z" stroke="#B191DD" stroke-opacity="0.15"/>
<path d="M77.5944 169.499C77.5944 165.65 74.474 162.53 70.6248 162.53C66.7757 162.53 63.6553 165.65 63.6553 169.499C63.6553 173.348 66.7757 176.469 70.6248 176.469C74.474 176.469 77.5944 173.348 77.5944 169.499Z" fill="#B191DD" fill-opacity="0.15"/>
<path opacity="0.15" d="M70.6249 28.2493V98.8743H141.25V28.2493H70.6249Z" stroke="#B191DD" stroke-opacity="0.15"/>
<path d="M77.5944 98.8742C77.5944 95.025 74.474 91.9046 70.6248 91.9046C66.7757 91.9046 63.6553 95.025 63.6553 98.8742C63.6553 102.723 66.7757 105.844 70.6248 105.844C74.474 105.844 77.5944 102.723 77.5944 98.8742Z" fill="#B191DD" fill-opacity="0.15"/>
<path opacity="0.15" d="M70.6249 -42.3757V28.2493L141.25 28.2493V-42.3757H70.6249Z" stroke="#B191DD" stroke-opacity="0.15"/>
<path d="M77.5944 28.2492C77.5944 24.4 74.474 21.2796 70.6248 21.2796C66.7757 21.2796 63.6553 24.4 63.6553 28.2492C63.6553 32.0984 66.7757 35.2188 70.6248 35.2188C74.474 35.2188 77.5944 32.0984 77.5944 28.2492Z" fill="#B191DD" fill-opacity="0.15"/>
<path opacity="0.15" d="M141.25 310.749V381.374H211.875V310.749H141.25Z" stroke="#B191DD" stroke-opacity="0.15"/>
<path d="M148.219 381.374C148.219 377.525 145.099 374.405 141.25 374.405C137.401 374.405 134.28 377.525 134.28 381.374C134.28 385.223 137.401 388.344 141.25 388.344C145.099 388.344 148.219 385.223 148.219 381.374Z" fill="#B191DD" fill-opacity="0.15"/>
<path opacity="0.15" d="M141.25 240.124V310.749H211.875V240.124H141.25Z" stroke="#B191DD" stroke-opacity="0.15"/>
<path d="M148.219 310.749C148.219 306.9 145.099 303.78 141.25 303.78C137.401 303.78 134.28 306.9 134.28 310.749C134.28 314.598 137.401 317.719 141.25 317.719C145.099 317.719 148.219 314.598 148.219 310.749Z" fill="#B191DD" fill-opacity="0.15"/>
<path opacity="0.15" d="M141.25 169.499V240.124H211.875V169.499H141.25Z" stroke="#B191DD" stroke-opacity="0.15"/>
<path d="M148.219 240.124C148.219 236.275 145.099 233.155 141.25 233.155C137.401 233.155 134.28 236.275 134.28 240.124C134.28 243.973 137.401 247.094 141.25 247.094C145.099 247.094 148.219 243.973 148.219 240.124Z" fill="#B191DD" fill-opacity="0.15"/>
<path opacity="0.15" d="M141.25 98.8743V169.499H211.875V98.8743H141.25Z" stroke="#B191DD" stroke-opacity="0.15"/>
<path d="M148.219 169.499C148.219 165.65 145.099 162.53 141.25 162.53C137.401 162.53 134.28 165.65 134.28 169.499C134.28 173.348 137.401 176.469 141.25 176.469C145.099 176.469 148.219 173.348 148.219 169.499Z" fill="#B191DD" fill-opacity="0.15"/>
<path opacity="0.15" d="M141.25 28.2493V98.8743H211.875V28.2493H141.25Z" stroke="#B191DD" stroke-opacity="0.15"/>
<path d="M148.219 98.8742C148.219 95.025 145.099 91.9046 141.25 91.9046C137.401 91.9046 134.28 95.025 134.28 98.8742C134.28 102.723 137.401 105.844 141.25 105.844C145.099 105.844 148.219 102.723 148.219 98.8742Z" fill="#B191DD" fill-opacity="0.15"/>
<path opacity="0.15" d="M141.25 -42.3757V28.2493L211.875 28.2493V-42.3757H141.25Z" stroke="#B191DD" stroke-opacity="0.15"/>
<path d="M148.219 28.2492C148.219 24.4 145.099 21.2796 141.25 21.2796C137.401 21.2796 134.28 24.4 134.28 28.2492C134.28 32.0984 137.401 35.2188 141.25 35.2188C145.099 35.2188 148.219 32.0984 148.219 28.2492Z" fill="#B191DD" fill-opacity="0.15"/>
<path opacity="0.15" d="M211.875 310.749V381.374H282.5V310.749H211.875Z" stroke="#B191DD" stroke-opacity="0.15"/>
<path d="M218.844 381.374C218.844 377.525 215.724 374.405 211.875 374.405C208.026 374.405 204.905 377.525 204.905 381.374C204.905 385.223 208.026 388.344 211.875 388.344C215.724 388.344 218.844 385.223 218.844 381.374Z" fill="#B191DD" fill-opacity="0.15"/>
<path opacity="0.15" d="M211.875 240.124V310.749H282.5V240.124H211.875Z" stroke="#B191DD" stroke-opacity="0.15"/>
<path d="M218.844 310.749C218.844 306.9 215.724 303.78 211.875 303.78C208.026 303.78 204.905 306.9 204.905 310.749C204.905 314.598 208.026 317.719 211.875 317.719C215.724 317.719 218.844 314.598 218.844 310.749Z" fill="#B191DD" fill-opacity="0.15"/>
<path opacity="0.15" d="M211.875 169.499V240.124H282.5V169.499H211.875Z" stroke="#B191DD" stroke-opacity="0.15"/>
<path d="M218.844 240.124C218.844 236.275 215.724 233.155 211.875 233.155C208.026 233.155 204.905 236.275 204.905 240.124C204.905 243.973 208.026 247.094 211.875 247.094C215.724 247.094 218.844 243.973 218.844 240.124Z" fill="#B191DD" fill-opacity="0.15"/>
<path opacity="0.15" d="M211.875 98.8743V169.499H282.5V98.8743H211.875Z" stroke="#B191DD" stroke-opacity="0.15"/>
<path d="M218.844 169.499C218.844 165.65 215.724 162.53 211.875 162.53C208.026 162.53 204.905 165.65 204.905 169.499C204.905 173.348 208.026 176.469 211.875 176.469C215.724 176.469 218.844 173.348 218.844 169.499Z" fill="#B191DD" fill-opacity="0.15"/>
<path opacity="0.15" d="M211.875 28.2493V98.8743H282.5V28.2493H211.875Z" stroke="#B191DD" stroke-opacity="0.15"/>
<path d="M218.844 98.8742C218.844 95.025 215.724 91.9046 211.875 91.9046C208.026 91.9046 204.905 95.025 204.905 98.8742C204.905 102.723 208.026 105.844 211.875 105.844C215.724 105.844 218.844 102.723 218.844 98.8742Z" fill="#B191DD" fill-opacity="0.15"/>
<path opacity="0.15" d="M211.875 -42.3757V28.2493L282.5 28.2493V-42.3757H211.875Z" stroke="#B191DD" stroke-opacity="0.15"/>
<path d="M218.844 28.2492C218.844 24.4 215.724 21.2796 211.875 21.2796C208.026 21.2796 204.905 24.4 204.905 28.2492C204.905 32.0984 208.026 35.2188 211.875 35.2188C215.724 35.2188 218.844 32.0984 218.844 28.2492Z" fill="#B191DD" fill-opacity="0.15"/>
<path opacity="0.15" d="M282.5 310.749V381.374H353.125V310.749H282.5Z" stroke="#B191DD" stroke-opacity="0.15"/>
<path d="M289.469 381.374C289.469 377.525 286.349 374.405 282.5 374.405C278.651 374.405 275.53 377.525 275.53 381.374C275.53 385.223 278.651 388.344 282.5 388.344C286.349 388.344 289.469 385.223 289.469 381.374Z" fill="#B191DD" fill-opacity="0.15"/>
<path opacity="0.15" d="M282.5 240.124V310.749H353.125V240.124H282.5Z" stroke="#B191DD" stroke-opacity="0.15"/>
<path d="M289.469 310.749C289.469 306.9 286.349 303.78 282.5 303.78C278.651 303.78 275.53 306.9 275.53 310.749C275.53 314.598 278.651 317.719 282.5 317.719C286.349 317.719 289.469 314.598 289.469 310.749Z" fill="#B191DD" fill-opacity="0.15"/>
<path opacity="0.15" d="M282.5 169.499V240.124H353.125V169.499H282.5Z" stroke="#B191DD" stroke-opacity="0.15"/>
<path d="M289.469 240.124C289.469 236.275 286.349 233.155 282.5 233.155C278.651 233.155 275.53 236.275 275.53 240.124C275.53 243.973 278.651 247.094 282.5 247.094C286.349 247.094 289.469 243.973 289.469 240.124Z" fill="#B191DD" fill-opacity="0.15"/>
<path opacity="0.15" d="M282.5 98.8743V169.499H353.125V98.8743H282.5Z" stroke="#B191DD" stroke-opacity="0.15"/>
<path d="M289.469 169.499C289.469 165.65 286.349 162.53 282.5 162.53C278.651 162.53 275.53 165.65 275.53 169.499C275.53 173.348 278.651 176.469 282.5 176.469C286.349 176.469 289.469 173.348 289.469 169.499Z" fill="#B191DD" fill-opacity="0.15"/>
<path opacity="0.15" d="M282.5 28.2493V98.8743H353.125V28.2493H282.5Z" stroke="#B191DD" stroke-opacity="0.15"/>
<path d="M289.469 98.8742C289.469 95.025 286.349 91.9046 282.5 91.9046C278.651 91.9046 275.53 95.025 275.53 98.8742C275.53 102.723 278.651 105.844 282.5 105.844C286.349 105.844 289.469 102.723 289.469 98.8742Z" fill="#B191DD" fill-opacity="0.15"/>
<path opacity="0.15" d="M282.5 -42.3757V28.2493L353.125 28.2493V-42.3757H282.5Z" stroke="#B191DD" stroke-opacity="0.15"/>
<path d="M289.469 28.2492C289.469 24.4 286.349 21.2796 282.5 21.2796C278.651 21.2796 275.53 24.4 275.53 28.2492C275.53 32.0984 278.651 35.2188 282.5 35.2188C286.349 35.2188 289.469 32.0984 289.469 28.2492Z" fill="#B191DD" fill-opacity="0.15"/>
<path opacity="0.15" d="M353.125 310.749V381.374H423.75V310.749H353.125Z" stroke="#B191DD" stroke-opacity="0.15"/>
<path d="M360.094 381.374C360.094 377.525 356.974 374.405 353.125 374.405C349.276 374.405 346.155 377.525 346.155 381.374C346.155 385.223 349.276 388.344 353.125 388.344C356.974 388.344 360.094 385.223 360.094 381.374Z" fill="#B191DD" fill-opacity="0.15"/>
<path opacity="0.15" d="M353.125 240.124V310.749H423.75V240.124H353.125Z" stroke="#B191DD" stroke-opacity="0.15"/>
<path d="M360.094 310.749C360.094 306.9 356.974 303.78 353.125 303.78C349.276 303.78 346.155 306.9 346.155 310.749C346.155 314.598 349.276 317.719 353.125 317.719C356.974 317.719 360.094 314.598 360.094 310.749Z" fill="#B191DD" fill-opacity="0.15"/>
<path opacity="0.15" d="M353.125 169.499V240.124H423.75V169.499H353.125Z" stroke="#B191DD" stroke-opacity="0.15"/>
<path d="M360.094 240.124C360.094 236.275 356.974 233.155 353.125 233.155C349.276 233.155 346.155 236.275 346.155 240.124C346.155 243.973 349.276 247.094 353.125 247.094C356.974 247.094 360.094 243.973 360.094 240.124Z" fill="#B191DD" fill-opacity="0.15"/>
<path opacity="0.15" d="M353.125 98.8743V169.499H423.75V98.8743H353.125Z" stroke="#B191DD" stroke-opacity="0.15"/>
<path d="M360.094 169.499C360.094 165.65 356.974 162.53 353.125 162.53C349.276 162.53 346.155 165.65 346.155 169.499C346.155 173.348 349.276 176.469 353.125 176.469C356.974 176.469 360.094 173.348 360.094 169.499Z" fill="#B191DD" fill-opacity="0.15"/>
<path opacity="0.15" d="M353.125 28.2493V98.8743H423.75V28.2493H353.125Z" stroke="#B191DD" stroke-opacity="0.15"/>
<path d="M360.094 98.8742C360.094 95.025 356.974 91.9046 353.125 91.9046C349.276 91.9046 346.155 95.025 346.155 98.8742C346.155 102.723 349.276 105.844 353.125 105.844C356.974 105.844 360.094 102.723 360.094 98.8742Z" fill="#B191DD" fill-opacity="0.15"/>
<path opacity="0.15" d="M353.125 -42.3757V28.2493L423.75 28.2493V-42.3757H353.125Z" stroke="#B191DD" stroke-opacity="0.15"/>
<path d="M360.094 28.2492C360.094 24.4 356.974 21.2796 353.125 21.2796C349.276 21.2796 346.155 24.4 346.155 28.2492C346.155 32.0984 349.276 35.2188 353.125 35.2188C356.974 35.2188 360.094 32.0984 360.094 28.2492Z" fill="#B191DD" fill-opacity="0.15"/>
<path opacity="0.15" d="M423.75 310.749V381.374H494.375V310.749H423.75Z" stroke="#B191DD" stroke-opacity="0.15"/>
<path d="M430.719 381.374C430.719 377.525 427.599 374.405 423.75 374.405C419.901 374.405 416.78 377.525 416.78 381.374C416.78 385.223 419.901 388.344 423.75 388.344C427.599 388.344 430.719 385.223 430.719 381.374Z" fill="#B191DD" fill-opacity="0.15"/>
<path opacity="0.15" d="M423.75 240.124V310.749H494.375V240.124H423.75Z" stroke="#B191DD" stroke-opacity="0.15"/>
<path d="M430.719 310.749C430.719 306.9 427.599 303.78 423.75 303.78C419.901 303.78 416.78 306.9 416.78 310.749C416.78 314.598 419.901 317.719 423.75 317.719C427.599 317.719 430.719 314.598 430.719 310.749Z" fill="#B191DD" fill-opacity="0.15"/>
<path opacity="0.15" d="M423.75 169.499V240.124H494.375V169.499H423.75Z" stroke="#B191DD" stroke-opacity="0.15"/>
<path d="M430.719 240.124C430.719 236.275 427.599 233.155 423.75 233.155C419.901 233.155 416.78 236.275 416.78 240.124C416.78 243.973 419.901 247.094 423.75 247.094C427.599 247.094 430.719 243.973 430.719 240.124Z" fill="#B191DD" fill-opacity="0.15"/>
<path opacity="0.15" d="M423.75 98.8743V169.499H494.375V98.8743H423.75Z" stroke="#B191DD" stroke-opacity="0.15"/>
<path d="M430.719 169.499C430.719 165.65 427.599 162.53 423.75 162.53C419.901 162.53 416.78 165.65 416.78 169.499C416.78 173.348 419.901 176.469 423.75 176.469C427.599 176.469 430.719 173.348 430.719 169.499Z" fill="#B191DD" fill-opacity="0.15"/>
<path opacity="0.15" d="M423.75 28.2493V98.8743H494.375V28.2493H423.75Z" stroke="#B191DD" stroke-opacity="0.15"/>
<path d="M430.719 98.8742C430.719 95.025 427.599 91.9046 423.75 91.9046C419.901 91.9046 416.78 95.025 416.78 98.8742C416.78 102.723 419.901 105.844 423.75 105.844C427.599 105.844 430.719 102.723 430.719 98.8742Z" fill="#B191DD" fill-opacity="0.15"/>
<path opacity="0.15" d="M423.75 -42.3757V28.2493L494.375 28.2493V-42.3757H423.75Z" stroke="#B191DD" stroke-opacity="0.15"/>
<path d="M430.719 28.2492C430.719 24.4 427.599 21.2796 423.75 21.2796C419.901 21.2796 416.78 24.4 416.78 28.2492C416.78 32.0984 419.901 35.2188 423.75 35.2188C427.599 35.2188 430.719 32.0984 430.719 28.2492Z" fill="#B191DD" fill-opacity="0.15"/>
<path opacity="0.15" d="M494.375 310.749V381.374H565V310.749H494.375Z" stroke="#B191DD" stroke-opacity="0.15"/>
<path d="M501.344 381.374C501.344 377.525 498.224 374.405 494.375 374.405C490.526 374.405 487.405 377.525 487.405 381.374C487.405 385.223 490.526 388.344 494.375 388.344C498.224 388.344 501.344 385.223 501.344 381.374Z" fill="#B191DD" fill-opacity="0.15"/>
<path opacity="0.15" d="M494.375 240.124V310.749H565V240.124H494.375Z" stroke="#B191DD" stroke-opacity="0.15"/>
<path d="M501.344 310.749C501.344 306.9 498.224 303.78 494.375 303.78C490.526 303.78 487.405 306.9 487.405 310.749C487.405 314.598 490.526 317.719 494.375 317.719C498.224 317.719 501.344 314.598 501.344 310.749Z" fill="#B191DD" fill-opacity="0.15"/>
<path opacity="0.15" d="M494.375 169.499V240.124H565V169.499H494.375Z" stroke="#B191DD" stroke-opacity="0.15"/>
<path d="M501.344 240.124C501.344 236.275 498.224 233.155 494.375 233.155C490.526 233.155 487.405 236.275 487.405 240.124C487.405 243.973 490.526 247.094 494.375 247.094C498.224 247.094 501.344 243.973 501.344 240.124Z" fill="#B191DD" fill-opacity="0.15"/>
<path opacity="0.15" d="M494.375 98.8743V169.499H565V98.8743H494.375Z" stroke="#B191DD" stroke-opacity="0.15"/>
<path d="M501.344 169.499C501.344 165.65 498.224 162.53 494.375 162.53C490.526 162.53 487.405 165.65 487.405 169.499C487.405 173.348 490.526 176.469 494.375 176.469C498.224 176.469 501.344 173.348 501.344 169.499Z" fill="#B191DD" fill-opacity="0.15"/>
<path opacity="0.15" d="M494.375 28.2493V98.8743H565V28.2493H494.375Z" stroke="#B191DD" stroke-opacity="0.15"/>
<path d="M501.344 98.8742C501.344 95.025 498.224 91.9046 494.375 91.9046C490.526 91.9046 487.405 95.025 487.405 98.8742C487.405 102.723 490.526 105.844 494.375 105.844C498.224 105.844 501.344 102.723 501.344 98.8742Z" fill="#B191DD" fill-opacity="0.15"/>
<path opacity="0.15" d="M494.375 -42.3757V28.2493L565 28.2493V-42.3757H494.375Z" stroke="#B191DD" stroke-opacity="0.15"/>
<path d="M501.344 28.2492C501.344 24.4 498.224 21.2796 494.375 21.2796C490.526 21.2796 487.405 24.4 487.405 28.2492C487.405 32.0984 490.526 35.2188 494.375 35.2188C498.224 35.2188 501.344 32.0984 501.344 28.2492Z" fill="#B191DD" fill-opacity="0.15"/>
<path opacity="0.15" d="M565 310.749V381.374H635.625V310.749H565Z" stroke="#B191DD" stroke-opacity="0.15"/>
<path d="M571.969 381.374C571.969 377.525 568.849 374.405 565 374.405C561.151 374.405 558.03 377.525 558.03 381.374C558.03 385.223 561.151 388.344 565 388.344C568.849 388.344 571.969 385.223 571.969 381.374Z" fill="#B191DD" fill-opacity="0.15"/>
<path opacity="0.15" d="M565 240.124V310.749H635.625V240.124H565Z" stroke="#B191DD" stroke-opacity="0.15"/>
<path d="M571.969 310.749C571.969 306.9 568.849 303.78 565 303.78C561.151 303.78 558.03 306.9 558.03 310.749C558.03 314.598 561.151 317.719 565 317.719C568.849 317.719 571.969 314.598 571.969 310.749Z" fill="#B191DD" fill-opacity="0.15"/>
<path opacity="0.15" d="M565 169.499V240.124H635.625V169.499H565Z" stroke="#B191DD" stroke-opacity="0.15"/>
<path d="M571.969 240.124C571.969 236.275 568.849 233.155 565 233.155C561.151 233.155 558.03 236.275 558.03 240.124C558.03 243.973 561.151 247.094 565 247.094C568.849 247.094 571.969 243.973 571.969 240.124Z" fill="#B191DD" fill-opacity="0.15"/>
<path opacity="0.15" d="M565 98.8743V169.499H635.625V98.8743H565Z" stroke="#B191DD" stroke-opacity="0.15"/>
<path d="M571.969 169.499C571.969 165.65 568.849 162.53 565 162.53C561.151 162.53 558.03 165.65 558.03 169.499C558.03 173.348 561.151 176.469 565 176.469C568.849 176.469 571.969 173.348 571.969 169.499Z" fill="#B191DD" fill-opacity="0.15"/>
<path opacity="0.15" d="M565 28.2493V98.8743H635.625V28.2493H565Z" stroke="#B191DD" stroke-opacity="0.15"/>
<path d="M571.969 98.8742C571.969 95.025 568.849 91.9046 565 91.9046C561.151 91.9046 558.03 95.025 558.03 98.8742C558.03 102.723 561.151 105.844 565 105.844C568.849 105.844 571.969 102.723 571.969 98.8742Z" fill="#B191DD" fill-opacity="0.15"/>
<path opacity="0.15" d="M565 -42.3757V28.2493L635.625 28.2493V-42.3757H565Z" stroke="#B191DD" stroke-opacity="0.15"/>
<path d="M571.969 28.2492C571.969 24.4 568.849 21.2796 565 21.2796C561.151 21.2796 558.03 24.4 558.03 28.2492C558.03 32.0984 561.151 35.2188 565 35.2188C568.849 35.2188 571.969 32.0984 571.969 28.2492Z" fill="#B191DD" fill-opacity="0.15"/>
<path opacity="0.15" d="M635.625 310.749V381.374H706.25V310.749H635.625Z" stroke="#B191DD" stroke-opacity="0.15"/>
<path d="M642.594 381.374C642.594 377.525 639.474 374.405 635.625 374.405C631.776 374.405 628.655 377.525 628.655 381.374C628.655 385.223 631.776 388.344 635.625 388.344C639.474 388.344 642.594 385.223 642.594 381.374Z" fill="#B191DD" fill-opacity="0.15"/>
<path opacity="0.15" d="M635.625 240.124V310.749H706.25V240.124H635.625Z" stroke="#B191DD" stroke-opacity="0.15"/>
<path d="M642.594 310.749C642.594 306.9 639.474 303.78 635.625 303.78C631.776 303.78 628.655 306.9 628.655 310.749C628.655 314.598 631.776 317.719 635.625 317.719C639.474 317.719 642.594 314.598 642.594 310.749Z" fill="#B191DD" fill-opacity="0.15"/>
<path opacity="0.15" d="M635.625 169.499V240.124H706.25V169.499H635.625Z" stroke="#B191DD" stroke-opacity="0.15"/>
<path d="M642.594 240.124C642.594 236.275 639.474 233.155 635.625 233.155C631.776 233.155 628.655 236.275 628.655 240.124C628.655 243.973 631.776 247.094 635.625 247.094C639.474 247.094 642.594 243.973 642.594 240.124Z" fill="#B191DD" fill-opacity="0.15"/>
<path opacity="0.15" d="M635.625 98.8743V169.499H706.25V98.8743H635.625Z" stroke="#B191DD" stroke-opacity="0.15"/>
<path d="M642.594 169.499C642.594 165.65 639.474 162.53 635.625 162.53C631.776 162.53 628.655 165.65 628.655 169.499C628.655 173.348 631.776 176.469 635.625 176.469C639.474 176.469 642.594 173.348 642.594 169.499Z" fill="#B191DD" fill-opacity="0.15"/>
<path opacity="0.15" d="M635.625 28.2493V98.8743H706.25V28.2493H635.625Z" stroke="#B191DD" stroke-opacity="0.15"/>
<path d="M642.594 98.8742C642.594 95.025 639.474 91.9046 635.625 91.9046C631.776 91.9046 628.655 95.025 628.655 98.8742C628.655 102.723 631.776 105.844 635.625 105.844C639.474 105.844 642.594 102.723 642.594 98.8742Z" fill="#B191DD" fill-opacity="0.15"/>
<path opacity="0.15" d="M635.625 -42.3757V28.2493L706.25 28.2493V-42.3757H635.625Z" stroke="#B191DD" stroke-opacity="0.15"/>
<path d="M642.594 28.2492C642.594 24.4 639.474 21.2796 635.625 21.2796C631.776 21.2796 628.655 24.4 628.655 28.2492C628.655 32.0984 631.776 35.2188 635.625 35.2188C639.474 35.2188 642.594 32.0984 642.594 28.2492Z" fill="#B191DD" fill-opacity="0.15"/>
<path opacity="0.15" d="M706.25 310.749V381.374H776.875V310.749H706.25Z" stroke="#B191DD" stroke-opacity="0.15"/>
<path d="M713.219 381.374C713.219 377.525 710.099 374.405 706.25 374.405C702.401 374.405 699.28 377.525 699.28 381.374C699.28 385.223 702.401 388.344 706.25 388.344C710.099 388.344 713.219 385.223 713.219 381.374Z" fill="#B191DD" fill-opacity="0.15"/>
<path opacity="0.15" d="M706.25 240.124V310.749H776.875V240.124H706.25Z" stroke="#B191DD" stroke-opacity="0.15"/>
<path d="M713.219 310.749C713.219 306.9 710.099 303.78 706.25 303.78C702.401 303.78 699.28 306.9 699.28 310.749C699.28 314.598 702.401 317.719 706.25 317.719C710.099 317.719 713.219 314.598 713.219 310.749Z" fill="#B191DD" fill-opacity="0.15"/>
<path opacity="0.15" d="M706.25 169.499V240.124H776.875V169.499H706.25Z" stroke="#B191DD" stroke-opacity="0.15"/>
<path d="M713.219 240.124C713.219 236.275 710.099 233.155 706.25 233.155C702.401 233.155 699.28 236.275 699.28 240.124C699.28 243.973 702.401 247.094 706.25 247.094C710.099 247.094 713.219 243.973 713.219 240.124Z" fill="#B191DD" fill-opacity="0.15"/>
<path opacity="0.15" d="M706.25 98.8743V169.499H776.875V98.8743H706.25Z" stroke="#B191DD" stroke-opacity="0.15"/>
<path d="M713.219 169.499C713.219 165.65 710.099 162.53 706.25 162.53C702.401 162.53 699.28 165.65 699.28 169.499C699.28 173.348 702.401 176.469 706.25 176.469C710.099 176.469 713.219 173.348 713.219 169.499Z" fill="#B191DD" fill-opacity="0.15"/>
<path opacity="0.15" d="M706.25 28.2493V98.8743H776.875V28.2493H706.25Z" stroke="#B191DD" stroke-opacity="0.15"/>
<path d="M713.219 98.8742C713.219 95.025 710.099 91.9046 706.25 91.9046C702.401 91.9046 699.28 95.025 699.28 98.8742C699.28 102.723 702.401 105.844 706.25 105.844C710.099 105.844 713.219 102.723 713.219 98.8742Z" fill="#B191DD" fill-opacity="0.15"/>
<path opacity="0.15" d="M706.25 -42.3757V28.2493L776.875 28.2493V-42.3757H706.25Z" stroke="#B191DD" stroke-opacity="0.15"/>
<path d="M713.219 28.2492C713.219 24.4 710.099 21.2796 706.25 21.2796C702.401 21.2796 699.28 24.4 699.28 28.2492C699.28 32.0984 702.401 35.2188 706.25 35.2188C710.099 35.2188 713.219 32.0984 713.219 28.2492Z" fill="#B191DD" fill-opacity="0.15"/>
<path opacity="0.15" d="M776.875 310.749V381.374H847.5V310.749H776.875Z" stroke="#B191DD" stroke-opacity="0.15"/>
<path d="M783.844 381.374C783.844 377.525 780.724 374.405 776.875 374.405C773.026 374.405 769.905 377.525 769.905 381.374C769.905 385.223 773.026 388.344 776.875 388.344C780.724 388.344 783.844 385.223 783.844 381.374Z" fill="#B191DD" fill-opacity="0.15"/>
<path opacity="0.15" d="M776.875 240.124V310.749H847.5V240.124H776.875Z" stroke="#B191DD" stroke-opacity="0.15"/>
<path d="M783.844 310.749C783.844 306.9 780.724 303.78 776.875 303.78C773.026 303.78 769.905 306.9 769.905 310.749C769.905 314.598 773.026 317.719 776.875 317.719C780.724 317.719 783.844 314.598 783.844 310.749Z" fill="#B191DD" fill-opacity="0.15"/>
<path opacity="0.15" d="M776.875 169.499V240.124H847.5V169.499H776.875Z" stroke="#B191DD" stroke-opacity="0.15"/>
<path d="M783.844 240.124C783.844 236.275 780.724 233.155 776.875 233.155C773.026 233.155 769.905 236.275 769.905 240.124C769.905 243.973 773.026 247.094 776.875 247.094C780.724 247.094 783.844 243.973 783.844 240.124Z" fill="#B191DD" fill-opacity="0.15"/>
<path opacity="0.15" d="M776.875 98.8743V169.499H847.5V98.8743H776.875Z" stroke="#B191DD" stroke-opacity="0.15"/>
<path d="M783.844 169.499C783.844 165.65 780.724 162.53 776.875 162.53C773.026 162.53 769.905 165.65 769.905 169.499C769.905 173.348 773.026 176.469 776.875 176.469C780.724 176.469 783.844 173.348 783.844 169.499Z" fill="#B191DD" fill-opacity="0.15"/>
<path opacity="0.15" d="M776.875 28.2493V98.8743H847.5V28.2493H776.875Z" stroke="#B191DD" stroke-opacity="0.15"/>
<path d="M783.844 98.8742C783.844 95.025 780.724 91.9046 776.875 91.9046C773.026 91.9046 769.905 95.025 769.905 98.8742C769.905 102.723 773.026 105.844 776.875 105.844C780.724 105.844 783.844 102.723 783.844 98.8742Z" fill="#B191DD" fill-opacity="0.15"/>
<path opacity="0.15" d="M776.875 -42.3757V28.2493L847.5 28.2493V-42.3757H776.875Z" stroke="#B191DD" stroke-opacity="0.15"/>
<path d="M783.844 28.2492C783.844 24.4 780.724 21.2796 776.875 21.2796C773.026 21.2796 769.905 24.4 769.905 28.2492C769.905 32.0984 773.026 35.2188 776.875 35.2188C780.724 35.2188 783.844 32.0984 783.844 28.2492Z" fill="#B191DD" fill-opacity="0.15"/>
<path opacity="0.15" d="M847.5 310.749V381.374H918.125V310.749H847.5Z" stroke="#B191DD" stroke-opacity="0.15"/>
<path d="M854.469 381.374C854.469 377.525 851.349 374.405 847.5 374.405C843.651 374.405 840.53 377.525 840.53 381.374C840.53 385.223 843.651 388.344 847.5 388.344C851.349 388.344 854.469 385.223 854.469 381.374Z" fill="#B191DD" fill-opacity="0.15"/>
<path opacity="0.15" d="M847.5 240.124V310.749H918.125V240.124H847.5Z" stroke="#B191DD" stroke-opacity="0.15"/>
<path d="M854.469 310.749C854.469 306.9 851.349 303.78 847.5 303.78C843.651 303.78 840.53 306.9 840.53 310.749C840.53 314.598 843.651 317.719 847.5 317.719C851.349 317.719 854.469 314.598 854.469 310.749Z" fill="#B191DD" fill-opacity="0.15"/>
<path opacity="0.15" d="M847.5 169.499V240.124H918.125V169.499H847.5Z" stroke="#B191DD" stroke-opacity="0.15"/>
<path d="M854.469 240.124C854.469 236.275 851.349 233.155 847.5 233.155C843.651 233.155 840.53 236.275 840.53 240.124C840.53 243.973 843.651 247.094 847.5 247.094C851.349 247.094 854.469 243.973 854.469 240.124Z" fill="#B191DD" fill-opacity="0.15"/>
<path opacity="0.15" d="M847.5 98.8743V169.499H918.125V98.8743H847.5Z" stroke="#B191DD" stroke-opacity="0.15"/>
<path d="M854.469 169.499C854.469 165.65 851.349 162.53 847.5 162.53C843.651 162.53 840.53 165.65 840.53 169.499C840.53 173.348 843.651 176.469 847.5 176.469C851.349 176.469 854.469 173.348 854.469 169.499Z" fill="#B191DD" fill-opacity="0.15"/>
<path opacity="0.15" d="M847.5 28.2493V98.8743H918.125V28.2493H847.5Z" stroke="#B191DD" stroke-opacity="0.15"/>
<path d="M854.469 98.8742C854.469 95.025 851.349 91.9046 847.5 91.9046C843.651 91.9046 840.53 95.025 840.53 98.8742C840.53 102.723 843.651 105.844 847.5 105.844C851.349 105.844 854.469 102.723 854.469 98.8742Z" fill="#B191DD" fill-opacity="0.15"/>
<path opacity="0.15" d="M847.5 -42.3757V28.2493L918.125 28.2493V-42.3757H847.5Z" stroke="#B191DD" stroke-opacity="0.15"/>
<path d="M854.469 28.2492C854.469 24.4 851.349 21.2796 847.5 21.2796C843.651 21.2796 840.53 24.4 840.53 28.2492C840.53 32.0984 843.651 35.2188 847.5 35.2188C851.349 35.2188 854.469 32.0984 854.469 28.2492Z" fill="#B191DD" fill-opacity="0.15"/>
<path opacity="0.15" d="M918.125 310.749V381.374H988.75V310.749H918.125Z" stroke="#B191DD" stroke-opacity="0.15"/>
<path d="M925.094 381.374C925.094 377.525 921.974 374.405 918.125 374.405C914.276 374.405 911.155 377.525 911.155 381.374C911.155 385.223 914.276 388.344 918.125 388.344C921.974 388.344 925.094 385.223 925.094 381.374Z" fill="#B191DD" fill-opacity="0.15"/>
<path opacity="0.15" d="M918.125 240.124V310.749H988.75V240.124H918.125Z" stroke="#B191DD" stroke-opacity="0.15"/>
<path d="M925.094 310.749C925.094 306.9 921.974 303.78 918.125 303.78C914.276 303.78 911.155 306.9 911.155 310.749C911.155 314.598 914.276 317.719 918.125 317.719C921.974 317.719 925.094 314.598 925.094 310.749Z" fill="#B191DD" fill-opacity="0.15"/>
<path opacity="0.15" d="M918.125 169.499V240.124H988.75V169.499H918.125Z" stroke="#B191DD" stroke-opacity="0.15"/>
<path d="M925.094 240.124C925.094 236.275 921.974 233.155 918.125 233.155C914.276 233.155 911.155 236.275 911.155 240.124C911.155 243.973 914.276 247.094 918.125 247.094C921.974 247.094 925.094 243.973 925.094 240.124Z" fill="#B191DD" fill-opacity="0.15"/>
<path opacity="0.15" d="M918.125 98.8743V169.499H988.75V98.8743H918.125Z" stroke="#B191DD" stroke-opacity="0.15"/>
<path d="M925.094 169.499C925.094 165.65 921.974 162.53 918.125 162.53C914.276 162.53 911.155 165.65 911.155 169.499C911.155 173.348 914.276 176.469 918.125 176.469C921.974 176.469 925.094 173.348 925.094 169.499Z" fill="#B191DD" fill-opacity="0.15"/>
<path opacity="0.15" d="M918.125 28.2493V98.8743H988.75V28.2493H918.125Z" stroke="#B191DD" stroke-opacity="0.15"/>
<path d="M925.094 98.8742C925.094 95.025 921.974 91.9046 918.125 91.9046C914.276 91.9046 911.155 95.025 911.155 98.8742C911.155 102.723 914.276 105.844 918.125 105.844C921.974 105.844 925.094 102.723 925.094 98.8742Z" fill="#B191DD" fill-opacity="0.15"/>
<path opacity="0.15" d="M918.125 -42.3757V28.2493L988.75 28.2493V-42.3757H918.125Z" stroke="#B191DD" stroke-opacity="0.15"/>
<path d="M925.094 28.2492C925.094 24.4 921.974 21.2796 918.125 21.2796C914.276 21.2796 911.155 24.4 911.155 28.2492C911.155 32.0984 914.276 35.2188 918.125 35.2188C921.974 35.2188 925.094 32.0984 925.094 28.2492Z" fill="#B191DD" fill-opacity="0.15"/>
<path opacity="0.15" d="M988.75 310.749V381.374H1059.37V310.749H988.75Z" stroke="#B191DD" stroke-opacity="0.15"/>
<path d="M995.719 381.374C995.719 377.525 992.599 374.405 988.75 374.405C984.901 374.405 981.78 377.525 981.78 381.374C981.78 385.223 984.901 388.344 988.75 388.344C992.599 388.344 995.719 385.223 995.719 381.374Z" fill="#B191DD" fill-opacity="0.15"/>
<path opacity="0.15" d="M988.75 240.124V310.749H1059.37V240.124H988.75Z" stroke="#B191DD" stroke-opacity="0.15"/>
<path d="M995.719 310.749C995.719 306.9 992.599 303.78 988.75 303.78C984.901 303.78 981.78 306.9 981.78 310.749C981.78 314.598 984.901 317.719 988.75 317.719C992.599 317.719 995.719 314.598 995.719 310.749Z" fill="#B191DD" fill-opacity="0.15"/>
<path opacity="0.15" d="M988.75 169.499V240.124H1059.37V169.499H988.75Z" stroke="#B191DD" stroke-opacity="0.15"/>
<path d="M995.719 240.124C995.719 236.275 992.599 233.155 988.75 233.155C984.901 233.155 981.78 236.275 981.78 240.124C981.78 243.973 984.901 247.094 988.75 247.094C992.599 247.094 995.719 243.973 995.719 240.124Z" fill="#B191DD" fill-opacity="0.15"/>
<path opacity="0.15" d="M988.75 98.8743V169.499H1059.37V98.8743H988.75Z" stroke="#B191DD" stroke-opacity="0.15"/>
<path d="M995.719 169.499C995.719 165.65 992.599 162.53 988.75 162.53C984.901 162.53 981.78 165.65 981.78 169.499C981.78 173.348 984.901 176.469 988.75 176.469C992.599 176.469 995.719 173.348 995.719 169.499Z" fill="#B191DD" fill-opacity="0.15"/>
<path opacity="0.15" d="M988.75 28.2493V98.8743H1059.37V28.2493H988.75Z" stroke="#B191DD" stroke-opacity="0.15"/>
<path d="M995.719 98.8742C995.719 95.025 992.599 91.9046 988.75 91.9046C984.901 91.9046 981.78 95.025 981.78 98.8742C981.78 102.723 984.901 105.844 988.75 105.844C992.599 105.844 995.719 102.723 995.719 98.8742Z" fill="#B191DD" fill-opacity="0.15"/>
<path opacity="0.15" d="M988.75 -42.3757V28.2493L1059.37 28.2493V-42.3757H988.75Z" stroke="#B191DD" stroke-opacity="0.15"/>
<path d="M995.719 28.2492C995.719 24.4 992.599 21.2796 988.75 21.2796C984.901 21.2796 981.78 24.4 981.78 28.2492C981.78 32.0984 984.901 35.2188 988.75 35.2188C992.599 35.2188 995.719 32.0984 995.719 28.2492Z" fill="#B191DD" fill-opacity="0.15"/>
<path opacity="0.15" d="M1059.38 310.749V381.374H1130V310.749H1059.38Z" stroke="#B191DD" stroke-opacity="0.15"/>
<path d="M1066.34 381.374C1066.34 377.525 1063.22 374.405 1059.37 374.405C1055.53 374.405 1052.41 377.525 1052.41 381.374C1052.41 385.223 1055.53 388.344 1059.37 388.344C1063.22 388.344 1066.34 385.223 1066.34 381.374Z" fill="#B191DD" fill-opacity="0.15"/>
<path opacity="0.15" d="M1059.38 240.124V310.749H1130V240.124H1059.38Z" stroke="#B191DD" stroke-opacity="0.15"/>
<path d="M1066.34 310.749C1066.34 306.9 1063.22 303.78 1059.37 303.78C1055.53 303.78 1052.41 306.9 1052.41 310.749C1052.41 314.598 1055.53 317.719 1059.37 317.719C1063.22 317.719 1066.34 314.598 1066.34 310.749Z" fill="#B191DD" fill-opacity="0.15"/>
<path opacity="0.15" d="M1059.38 169.499V240.124H1130V169.499H1059.38Z" stroke="#B191DD" stroke-opacity="0.15"/>
<path d="M1066.34 240.124C1066.34 236.275 1063.22 233.155 1059.37 233.155C1055.53 233.155 1052.41 236.275 1052.41 240.124C1052.41 243.973 1055.53 247.094 1059.37 247.094C1063.22 247.094 1066.34 243.973 1066.34 240.124Z" fill="#B191DD" fill-opacity="0.15"/>
<path opacity="0.15" d="M1059.38 98.8743V169.499H1130V98.8743H1059.38Z" stroke="#B191DD" stroke-opacity="0.15"/>
<path d="M1066.34 169.499C1066.34 165.65 1063.22 162.53 1059.37 162.53C1055.53 162.53 1052.41 165.65 1052.41 169.499C1052.41 173.348 1055.53 176.469 1059.37 176.469C1063.22 176.469 1066.34 173.348 1066.34 169.499Z" fill="#B191DD" fill-opacity="0.15"/>
<path opacity="0.15" d="M1059.38 28.2493V98.8743H1130V28.2493H1059.38Z" stroke="#B191DD" stroke-opacity="0.15"/>
<path d="M1066.34 98.8742C1066.34 95.025 1063.22 91.9046 1059.37 91.9046C1055.53 91.9046 1052.41 95.025 1052.41 98.8742C1052.41 102.723 1055.53 105.844 1059.37 105.844C1063.22 105.844 1066.34 102.723 1066.34 98.8742Z" fill="#B191DD" fill-opacity="0.15"/>
<path opacity="0.15" d="M1059.38 -42.3757V28.2493L1130 28.2493V-42.3757H1059.38Z" stroke="#B191DD" stroke-opacity="0.15"/>
<path d="M1066.34 28.2492C1066.34 24.4 1063.22 21.2796 1059.37 21.2796C1055.53 21.2796 1052.41 24.4 1052.41 28.2492C1052.41 32.0984 1055.53 35.2188 1059.37 35.2188C1063.22 35.2188 1066.34 32.0984 1066.34 28.2492Z" fill="#B191DD" fill-opacity="0.15"/>
<path d="M1136.97 381.374C1136.97 377.525 1133.85 374.405 1130 374.405C1126.15 374.405 1123.03 377.525 1123.03 381.374C1123.03 385.223 1126.15 388.344 1130 388.344C1133.85 388.344 1136.97 385.223 1136.97 381.374Z" fill="#B191DD" fill-opacity="0.15"/>
<path d="M1136.97 310.749C1136.97 306.9 1133.85 303.78 1130 303.78C1126.15 303.78 1123.03 306.9 1123.03 310.749C1123.03 314.598 1126.15 317.719 1130 317.719C1133.85 317.719 1136.97 314.598 1136.97 310.749Z" fill="#B191DD" fill-opacity="0.15"/>
<path d="M1136.97 240.124C1136.97 236.275 1133.85 233.155 1130 233.155C1126.15 233.155 1123.03 236.275 1123.03 240.124C1123.03 243.973 1126.15 247.094 1130 247.094C1133.85 247.094 1136.97 243.973 1136.97 240.124Z" fill="#B191DD" fill-opacity="0.15"/>
<path d="M1136.97 169.499C1136.97 165.65 1133.85 162.53 1130 162.53C1126.15 162.53 1123.03 165.65 1123.03 169.499C1123.03 173.348 1126.15 176.469 1130 176.469C1133.85 176.469 1136.97 173.348 1136.97 169.499Z" fill="#B191DD" fill-opacity="0.15"/>
<path d="M1136.97 98.8742C1136.97 95.025 1133.85 91.9046 1130 91.9046C1126.15 91.9046 1123.03 95.025 1123.03 98.8742C1123.03 102.723 1126.15 105.844 1130 105.844C1133.85 105.844 1136.97 102.723 1136.97 98.8742Z" fill="#B191DD" fill-opacity="0.15"/>
<path d="M1136.97 28.2492C1136.97 24.4 1133.85 21.2796 1130 21.2796C1126.15 21.2796 1123.03 24.4 1123.03 28.2492C1123.03 32.0984 1126.15 35.2188 1130 35.2188C1133.85 35.2188 1136.97 32.0984 1136.97 28.2492Z" fill="#B191DD" fill-opacity="0.15"/>
</g>
</g>
<defs>
<clipPath id="clip0_99_6">
<rect width="1130" height="1130" fill="white" transform="matrix(0 -1 1 0 0 1017)"/>
</clipPath>
</defs>
</svg>
